<?xml version="1.0" encoding="utf-8"?>
<!-- Generator: Adobe Illustrator 24.0.1, SVG Export Plug-In . SVG Version: 6.00 Build 0)  -->
<svg version="1.1" id="Layer_1" xmlns="http://www.w3.org/2000/svg" xmlns:xlink="http://www.w3.org/1999/xlink" x="0px" y="0px"
	 viewBox="0 0 24 24" style="enable-background:new 0 0 24 24;" xml:space="preserve">
<style type="text/css">
	.st0{fill:#F8C018;}
	.st1{fill:url(#SVGID_1_);}
	.st2{fill:url(#SVGID_2_);}
	.st3{fill:url(#SVGID_3_);}
	.st4{fill:#C8B299;}
	.st5{fill:#A77D52;}
	.st6{fill:#C59C6D;}
	.st7{fill:#754D25;}
	.st8{fill:#8D633A;}
	.st9{opacity:0.3;fill:#FFFFFF;}
	.st10{fill:#079247;}
	.st11{fill:#046937;}
	.st12{fill:#FFFFFF;}
</style>
<rect class="st0" width="24" height="24"/>
<g>
	<linearGradient id="SVGID_1_" gradientUnits="userSpaceOnUse" x1="10.7387" y1="11.4337" x2="10.7387" y2="3.3353">
		<stop  offset="0" style="stop-color:#A78564"/>
		<stop  offset="1" style="stop-color:#7E5E4A"/>
	</linearGradient>
	<polygon class="st1" points="17.752,7.384 10.739,3.335 3.725,7.384 10.739,11.434 	"/>
	<g>
		<linearGradient id="SVGID_2_" gradientUnits="userSpaceOnUse" x1="4.4734" y1="16.2417" x2="11.788" y2="8.8618">
			<stop  offset="0" style="stop-color:#7E5E4A"/>
			<stop  offset="1" style="stop-color:#A78564"/>
		</linearGradient>
		<polygon class="st2" points="10.739,19.532 3.725,15.483 3.725,7.384 10.739,11.434 		"/>
		<linearGradient id="SVGID_3_" gradientUnits="userSpaceOnUse" x1="14.2455" y1="17.7012" x2="14.2455" y2="7.3475">
			<stop  offset="0" style="stop-color:#714E38"/>
			<stop  offset="1" style="stop-color:#74421A"/>
		</linearGradient>
		<polygon class="st3" points="10.739,19.532 17.752,15.483 17.752,7.384 10.739,11.434 		"/>
		<g>
			<polygon class="st4" points="10.713,11.476 3.7,7.427 3.75,7.342 10.764,11.39 			"/>
		</g>
		<g>
			<polygon class="st5" points="10.764,11.476 10.713,11.39 17.727,7.342 17.778,7.427 			"/>
		</g>
		<g>
			<rect x="10.689" y="11.433" class="st6" width="0.1" height="8.099"/>
		</g>
	</g>
	<polygon class="st7" points="7.193,5.383 14.206,9.432 14.308,9.373 7.294,5.324 	"/>
	<polygon class="st8" points="7.292,5.325 14.305,9.374 14.407,9.316 7.393,5.267 	"/>
	<polygon class="st9" points="8.072,4.875 6.392,5.845 13.405,9.894 15.085,8.924 	"/>
	<polygon class="st9" points="15.085,10.666 15.085,8.924 13.405,9.894 13.405,11.636 	"/>
	<g>
		<g>
			<circle class="st10" cx="17.752" cy="16.266" r="3.533"/>
			<path class="st11" d="M17.752,20.3c-2.224,0-4.033-1.81-4.033-4.033s1.81-4.033,4.033-4.033s4.033,1.81,4.033,4.033
				S19.976,20.3,17.752,20.3z M17.752,13.233c-1.673,0-3.033,1.36-3.033,3.033s1.36,3.033,3.033,3.033s3.033-1.36,3.033-3.033
				S19.425,13.233,17.752,13.233z"/>
		</g>
		<g>
			<polygon class="st12" points="17.094,18.143 15.568,16.617 16.275,15.91 17.094,16.729 19.122,14.702 19.829,15.409 			"/>
		</g>
	</g>
</g>
</svg>
